<svg width="146" height="29" fill="none" xmlns="http://www.w3.org/2000/svg"><path fill-rule="evenodd" clip-rule="evenodd" d="M124 20c2.49 0 4.46-2.69 4.46-6V6h2v8c0 4.4-2.88 7.95-6.42 7.95s-6.42-3.55-6.42-7.95V6h2v8c-.08 3.36 1.89 6.05 4.37 6.05L124 20zm-48.17 2.07h-2v-1.43a7.69 7.69 0 01-4.4 1.39 8 8 0 116-13.23l-1.47 1.31a6 6 0 10-4.46 10 5.77 5.77 0 004.38-2h-5.4v-2h7.37l-.02 5.96zM42 6.13h-2v15.92h8v-2h-6V6.13zm12.23 12a6 6 0 100-12 6 6 0 000 12zm0-2a4 4 0 10-4-4 4 4 0 004 3.98v.02zm4 5.94v-2h-8v2h8zm30.96-9.9a6 6 0 00-6-6l.02-.04a6 6 0 00-6.02 6.04 6 6 0 0012 0zm-6 4a4 4 0 10-4-4 4 4 0 004.02 3.94l-.02.06zm4 5.94v-2h-8v2h8zm4.13-15.98h2v15.9h-2V6.13zm6.77 0h-2v15.93h2v-4h.31a6 6 0 100-11.93 1.47 1.47 0 00-.31 0zm0 2v.047l-.01.003.01-.05zm0 .047c.1-.034.205-.056.31-.067a3.999 3.999 0 013.9 6.116 3.999 3.999 0 01-3.9 1.814h-.31V8.177zm14.377-.87l.033-.027-.01.05-.023-.024zM109.68 6.18a3.74 3.74 0 012.787 1.126L111.02 8.45a1.94 1.94 0 00-3.33 1.13v.16c0 .88.61 1.47 1.8 1.55 4.58.28 6.68 2.43 6.68 5.27v.18A5.899 5.899 0 01106 20.16l1.53-1.18a3.6 3.6 0 002.8 1.14 3.74 3.74 0 003.92-3.38v-.14c0-2.67-2.62-3.16-4.89-3.38-2.1-.2-3.61-1.51-3.61-3.4v-.08a3.85 3.85 0 013.93-3.56zM143.81 22h2l-.02-15.87-6.6 8.69-6.6-8.69v15.9h2V12.1l4.61 6 4.61-6V22z" fill="#000"/><path d="M27.247 2.656A7.854 7.854 0 0021.317 0c-1.792 0-3.726 1.067-5.14 1.846-.514.284-1.217.673-1.425.698-.207-.025-.907-.412-1.42-.696C11.922 1.068 9.992 0 8.186 0a7.854 7.854 0 00-5.929 2.656C.802 4.286 0 6.431 0 8.696c0 3.236 1.162 7.838 3.108 12.31.866 1.99 1.788 3.71 2.666 4.973 1.045 1.503 1.942 2.234 2.741 2.234.355 0 1.005-.15 1.37-1.159.354-.98.673-2.104 1.01-3.297.895-3.158 2.008-7.087 3.8-7.087h.114c.796 0 1.51.682 2.18 2.086.664 1.391 1.169 3.24 1.658 5.031.323 1.184.628 2.302.971 3.265.357 1.002 1 1.151 1.352 1.152.796 0 1.691-.742 2.739-2.268.875-1.277 1.799-3.013 2.67-5.022 1.957-4.509 3.125-9.076 3.125-12.218 0-2.265-.802-4.41-2.257-6.04zM20.765 4.98c-.019-.001-1.872-.09-3.558-.536-.76-.202-1.66-.606-1.66-.726 0-.117.977-.686 1.213-.816 1.297-.716 3.074-1.697 4.558-1.697 4.37 0 6.982 3.81 6.982 7.492 0 2.94-1.16 7.439-3.025 11.738-.83 1.912-1.739 3.624-2.56 4.82-.947 1.38-1.56 1.782-1.745 1.745-.114-.022-.128-.103-.217-.352-.328-.92-.628-2.017-.945-3.179-.502-1.84-1.021-3.742-1.732-5.23-.89-1.866-1.96-2.773-3.267-2.773h-.114c-1.26 0-2.303.9-3.191 2.75-.709 1.477-1.247 3.376-1.767 5.213-.332 1.17-.645 2.276-.985 3.216-.075.208-.098.344-.237.365-.108.016-.572-.02-1.752-1.718-.822-1.182-1.727-2.874-2.55-4.765-1.856-4.264-3.009-8.797-3.009-11.83 0-3.683 2.612-7.492 6.982-7.492 1.136 0 2.63.518 3.994 1.385.2.127.482.344.754.553.109.084.216.166.316.241.32.24.752.553 1.26.852.216.128.485.287.771.408 1.094.464 2.253.7 3.446.7 1.216 0 2.034-.217 2.042-.22 0 0 .183-.048.177-.095-.006-.048-.181-.049-.181-.049z" fill="#0096FF"/></svg>